<svg width="300" height="300" viewBox="0 0 300 300" fill="none" xmlns="http://www.w3.org/2000/svg">
<path d="M144.597 263C207.978 263 259.359 212.184 259.359 149.5C259.359 86.8157 207.978 36 144.597 36C81.2156 36 29.835 86.8157 29.835 149.5C29.835 212.184 81.2156 263 144.597 263Z" fill="url(#paint0_linear_1413_1254)"/>
<path fill-rule="evenodd" clip-rule="evenodd" d="M243.613 221.852C244.658 221.483 245.759 220.993 246.608 220.284C247.616 219.442 248.025 218.357 248.301 217.215C248.654 215.748 248.795 214.185 249.224 212.716C249.383 212.17 249.688 211.964 249.819 211.872C250.15 211.641 250.485 211.579 250.8 211.602C251.173 211.629 251.686 211.769 252.023 212.388C252.071 212.476 252.134 212.611 252.176 212.796C252.206 212.932 252.226 213.355 252.259 213.53C252.34 213.96 252.408 214.391 252.471 214.824C252.684 216.264 252.806 217.487 253.476 218.81C254.385 220.607 255.296 221.706 256.532 222.193C257.727 222.664 259.156 222.575 260.981 222.206C261.155 222.164 261.327 222.129 261.497 222.099C262.301 221.96 263.071 222.483 263.229 223.276C263.387 224.068 262.875 224.84 262.078 225.015C261.911 225.051 261.747 225.085 261.585 225.117C259.118 225.721 256.263 227.876 254.603 229.764C254.092 230.345 253.343 231.972 252.579 233.01C252.015 233.776 251.382 234.281 250.85 234.459C250.493 234.579 250.193 234.561 249.945 234.5C249.584 234.412 249.285 234.219 249.055 233.911C248.93 233.743 248.814 233.518 248.759 233.23C248.732 233.092 248.729 232.74 248.73 232.581C248.574 232.051 248.384 231.534 248.245 230.999C247.914 229.724 247.264 228.917 246.492 227.851C245.77 226.853 244.995 226.225 243.858 225.725C243.711 225.689 242.517 225.4 242.096 225.235C241.481 224.991 241.187 224.584 241.081 224.365C240.9 223.993 240.881 223.668 240.917 223.397C240.971 222.996 241.153 222.654 241.475 222.378C241.674 222.206 241.972 222.039 242.371 221.957C242.68 221.894 243.498 221.857 243.613 221.852ZM250.612 219.773C250.667 219.895 250.726 220.018 250.788 220.141C252.12 222.772 253.61 224.241 255.42 224.954L255.481 224.977C254.27 225.866 253.173 226.86 252.335 227.813C251.99 228.206 251.534 229.02 251.04 229.856C250.592 228.415 249.859 227.396 248.937 226.121C248.232 225.148 247.494 224.415 246.587 223.819C247.291 223.461 247.962 223.043 248.547 222.554C249.521 221.74 250.165 220.798 250.612 219.773Z" fill="#E3E3E3"/>
<ellipse cx="14.4352" cy="127.383" rx="5.43521" ry="5.37545" fill="#E3E3E3"/>
<path d="M54.2858 65.6132C53.5731 65.2537 52.6846 65.4814 52.2438 66.1688H52.2448C51.7695 66.9029 51.9866 67.878 52.7194 68.3466H52.7204C56.8722 70.9964 59.5767 74.6566 60.9538 79.3505L60.9528 79.3514C61.195 80.191 62.0766 80.6665 62.9128 80.4247H62.9138C63.7459 80.1826 64.2374 79.3087 63.989 78.4686C62.3938 73.0305 59.2404 68.7672 54.4265 65.6932L54.2858 65.6132Z" fill="black" stroke="black"/>
<path d="M130.837 62.9667C122.409 59.3733 113.005 62.4912 108.345 70.2469C107.647 69.6208 106.912 69.0365 106.147 68.4969L105.731 68.2108C96.9196 62.3385 84.2789 64.4913 74.6366 73.495H74.6356L74.3436 73.7792C72.9018 75.2427 71.7647 77.287 70.8729 79.6698C69.9199 82.2164 69.235 85.1839 68.7645 88.3172L68.578 89.6473C67.8398 95.2877 67.7004 101.369 67.745 106.351C66.7284 103.982 65.5902 101.676 64.3807 99.3768L62.0643 94.9559C56.6333 84.5961 50.8725 74.0567 41.9305 66.162L41.9286 66.161L41.8026 66.0604C41.1526 65.5971 40.2426 65.6836 39.7001 66.2938L39.5975 66.4198C39.1569 67.0261 39.2108 67.8607 39.7167 68.4081L39.8319 68.5204C48.4522 76.133 53.9841 86.3257 59.3036 96.4921L61.579 100.841C63.4806 104.454 65.1855 108.058 66.5018 111.896V111.897C66.9018 113.055 67.3039 114.182 67.6366 115.337L67.6356 115.338C67.6363 115.342 67.6377 115.353 67.6385 115.375C67.6399 115.406 67.6389 115.447 67.6356 115.502C67.6322 115.557 67.6276 115.614 67.6219 115.683L67.6083 115.901V115.906L67.6063 116.192C67.6107 116.48 67.6356 116.767 67.6981 117.006L67.6991 117.01C67.8563 117.592 68.206 117.997 68.6464 118.227L68.6493 118.228C68.972 118.395 69.3725 118.486 69.8524 118.401L69.8573 118.4C70.1977 118.336 70.7454 118.144 71.0389 117.451L71.038 117.45C71.0729 117.368 71.0943 117.271 71.1073 117.199C71.1234 117.11 71.1382 116.999 71.1503 116.87C71.1745 116.611 71.1889 116.262 71.1776 115.833V115.832L71.119 114.217C70.9465 109.821 70.5748 100.562 71.4911 91.9452L71.5975 90.9911C71.9829 87.7332 72.5446 84.614 73.3866 81.9598C74.1784 79.4642 75.2051 77.4238 76.5292 76.0585L76.7977 75.7938C85.3934 67.7677 96.4016 65.7945 103.964 70.8241L104.321 71.0692C105.276 71.7421 106.171 72.4927 106.994 73.3153C106.851 74.0557 106.765 74.988 106.778 75.9364C106.791 76.8677 106.898 77.8466 107.157 78.6903L107.278 79.0428C107.619 79.9431 108.167 80.6794 108.909 81.1014L109.059 81.1815C109.864 81.5803 110.859 81.642 112.019 81.1239L112.254 81.0126C113.338 80.4644 113.729 79.4156 113.63 78.2948L113.607 78.1014C113.474 77.1295 112.978 76.0941 112.701 75.6073L112.449 75.1776C111.908 74.2785 111.297 73.4254 110.631 72.621C114.371 65.5692 122.632 62.6998 129.933 66.0155H129.934C130.679 66.3523 131.547 66.0684 131.955 65.3817L132.03 65.2381L132.031 65.2352C132.392 64.4436 132.044 63.5082 131.247 63.1473L130.837 62.9667ZM110.082 77.409C110.213 77.6683 110.358 78.0053 110.436 78.3299C110.424 78.3163 110.407 78.2974 110.389 78.2674C110.341 78.1893 110.295 78.0827 110.237 77.9296V77.9286L110.147 77.66C110.123 77.5789 110.102 77.495 110.082 77.409Z" fill="black" stroke="black"/>
<rect x="91.6317" y="94.887" width="197.556" height="70.4335" rx="24" fill="black"/>
<rect x="173.181" y="119.135" width="66.6179" height="9.23718" rx="4.61859" fill="#CCC6D9"/>
<rect x="108.861" y="132.99" width="131.274" height="9.23718" rx="4.61859" fill="white"/>
<ellipse cx="263.919" cy="130.681" rx="11.4858" ry="11.5465" fill="#E1DCEB"/>
<rect x="8.99994" y="153.774" width="197.556" height="70.4335" rx="24" fill="#E1DCEB"/>
<rect x="58.389" y="178.022" width="66.6179" height="9.23718" rx="4.61859" fill="black"/>
<rect x="58.389" y="191.878" width="131.274" height="9.23719" rx="4.61859" fill="white"/>
<ellipse cx="37.7145" cy="189.568" rx="11.4858" ry="11.5465" fill="#CCC6D9"/>
<defs>
<linearGradient id="paint0_linear_1413_1254" x1="143.712" y1="-0.958387" x2="146.012" y2="397.637" gradientUnits="userSpaceOnUse">
<stop stop-color="#F2F2F2"/>
<stop offset="1" stop-color="#EFEFEF"/>
</linearGradient>
</defs>
</svg>
