<svg data-logo="logo" xmlns="http://www.w3.org/2000/svg" viewBox="0 0 117 43">
        <g style="opacity: 1;" id="logogram" transform="translate(0, 1) rotate(0)"><path d="M20.3018 10.27C20.3018 15.7928 15.8246 20.27 10.3018 20.27H0.301758V10.27C0.301758 4.74714 4.7789 0.269989 10.3018 0.269989C15.8246 0.269989 20.3018 4.74714 20.3018 10.27Z" fill="#FFFFFF"></path><path d="M20.3018 30.27C20.3018 24.7471 24.7789 20.27 30.3018 20.27H40.3018V30.27C40.3018 35.7928 35.8246 40.27 30.3018 40.27C24.7789 40.27 20.3018 35.7928 20.3018 30.27Z" fill="#FFFFFF"></path><path d="M0.301758 30.27C0.301758 35.7928 4.7789 40.27 10.3018 40.27H20.3018V30.27C20.3018 24.7471 15.8246 20.27 10.3018 20.27C4.7789 20.27 0.301758 24.7471 0.301758 30.27Z" fill="#FFFFFF"></path><path d="M40.3018 10.27C40.3018 4.74714 35.8246 0.269989 30.3018 0.269989H20.3018V10.27C20.3018 15.7928 24.7789 20.27 30.3018 20.27C35.8246 20.27 40.3018 15.7928 40.3018 10.27Z" fill="#FFFFFF"></path></g>
        <g style="opacity: 1;" id="logotype" transform="translate(43, 12.5)"><path fill="#cfcfcf" d="M17.40 5.70L14 6.07Q13.98 5.60 13.66 5.17Q13.35 4.75 12.53 4.50Q11.70 4.25 10.15 4.25L10.15 4.25Q8.60 4.25 7.76 4.49Q6.93 4.72 6.61 5.13Q6.30 5.52 6.28 6.05L6.28 6.05Q6.30 6.57 6.54 6.92Q6.78 7.27 7.39 7.51Q8 7.75 9.10 7.92L9.10 7.92L12.03 8.45Q14.15 8.78 15.33 9.47Q16.50 10.18 16.98 11.10Q17.45 12.02 17.45 13.05L17.45 13.05Q17.45 14.13 17.01 15.06Q16.58 16 15.69 16.71Q14.80 17.43 13.43 17.82Q12.05 18.23 10.15 18.23L10.15 18.23Q7.80 18.23 6.24 17.68Q4.68 17.13 3.85 16.13Q3.03 15.13 2.90 13.75L2.90 13.75L6.30 13.35Q6.33 13.88 6.65 14.29Q6.98 14.70 7.80 14.96Q8.63 15.22 10.15 15.22L10.15 15.22Q11.70 15.22 12.54 14.90Q13.38 14.57 13.69 14.07Q14 13.57 14.03 13.07L14.03 13.07Q14 12.65 13.75 12.29Q13.50 11.93 12.85 11.64Q12.20 11.35 10.97 11.15L10.97 11.15L8.10 10.65Q6.05 10.30 4.91 9.67Q3.78 9.05 3.33 8.14Q2.88 7.22 2.88 6.05L2.88 6.05Q2.88 4.97 3.30 4.10Q3.73 3.22 4.61 2.57Q5.50 1.93 6.89 1.57Q8.28 1.22 10.15 1.22L10.15 1.22Q12.50 1.22 14.06 1.77Q15.63 2.32 16.45 3.32Q17.27 4.32 17.40 5.70L17.40 5.70ZM19.53 5.50L22.88 5.50L22.88 18L19.53 18L19.53 5.50ZM21.23 3.77L21.23 3.77Q20.48 3.77 19.95 3.25Q19.43 2.72 19.43 1.97L19.43 1.97Q19.43 1.25 19.95 0.72Q20.48 0.20 21.23 0.20L21.23 0.20Q21.95 0.20 22.48 0.72Q23 1.25 23 1.97L23 1.97Q23 2.72 22.48 3.25Q21.95 3.77 21.23 3.77ZM31.93 8.95L41.20 8.95Q41.23 9.45 41.20 9.90L41.20 9.90Q41.10 12.35 40.23 14.26Q39.35 16.18 37.59 17.29Q35.83 18.40 33.13 18.40L33.13 18.40Q30.43 18.40 28.63 17.27Q26.83 16.15 25.91 14.19Q25 12.22 25 9.72L25 9.72Q25 7.25 25.95 5.29Q26.90 3.32 28.75 2.19Q30.60 1.05 33.27 1.05L33.27 1.05Q35.23 1.05 36.74 1.65Q38.25 2.25 39.28 3.30Q40.30 4.35 40.85 5.70L40.85 5.70L37.33 6.15Q36.88 5.22 35.86 4.66Q34.85 4.10 33.27 4.10L33.27 4.10Q31.60 4.10 30.53 4.81Q29.45 5.52 28.94 6.80Q28.43 8.07 28.43 9.72L28.43 9.72Q28.43 11.40 28.90 12.68Q29.38 13.95 30.43 14.66Q31.48 15.38 33.15 15.38L33.15 15.38Q34.42 15.38 35.40 14.93Q36.38 14.47 36.98 13.63Q37.58 12.77 37.70 11.60L37.70 11.60L31.93 11.60L31.93 8.95ZM55.90 11.75L55.90 12.80L46.25 12.80Q46.33 14.10 47.29 14.79Q48.25 15.47 49.75 15.47L49.75 15.47Q50.63 15.47 51.19 15.29Q51.75 15.10 52.13 14.80Q52.50 14.50 52.78 14.20L52.78 14.20L55.55 15.70Q54.88 16.55 54.13 17.13Q53.38 17.70 52.34 18.01Q51.30 18.32 49.75 18.32L49.75 18.32Q47.45 18.32 45.90 17.48Q44.35 16.63 43.58 15.14Q42.80 13.65 42.80 11.75L42.80 11.75Q42.80 9.88 43.50 8.39Q44.20 6.90 45.66 6.04Q47.13 5.17 49.43 5.17L49.43 5.17Q51.73 5.17 53.16 6.04Q54.60 6.90 55.25 8.39Q55.90 9.88 55.90 11.75L55.90 11.75ZM46.30 10.45L46.30 10.45L52.40 10.45Q52.38 9.40 51.63 8.71Q50.88 8.02 49.43 8.02L49.43 8.02Q47.98 8.02 47.23 8.66Q46.48 9.30 46.30 10.45ZM69.18 7.02L69.18 7.02Q69.18 6.27 68.98 5.69Q68.78 5.10 68.09 4.75Q67.40 4.40 65.98 4.40L65.98 4.40L61.70 4.40L61.70 9.60L65.98 9.60Q67.40 9.60 68.09 9.26Q68.78 8.92 68.98 8.34Q69.18 7.75 69.18 7.02ZM61.70 18L58.30 18L58.30 1.50L66.40 1.50Q68.80 1.50 70.14 2.21Q71.48 2.92 72.01 4.16Q72.55 5.40 72.55 7.02L72.55 7.02Q72.55 8.38 72.18 9.46Q71.80 10.55 70.90 11.27Q70.00 12 68.40 12.27L68.40 12.27L72.35 18L68.68 18L64.85 12.45L61.70 12.45L61.70 18Z"></path></g>
        
      </svg>